<svg width="66" height="22" viewBox="0 0 66 22" fill="none" xmlns="http://www.w3.org/2000/svg">
<path d="M55.5976 21.3538L64.7366 12.3918C65.0396 12.0947 65.2122 11.6894 65.2163 11.2651C65.2205 10.8407 65.0559 10.4321 64.7588 10.1292L55.7968 0.990087C55.5753 0.76345 55.2916 0.607672 54.9815 0.5425C54.6714 0.477327 54.3489 0.505695 54.055 0.624008C53.761 0.742321 53.5088 0.94525 53.3304 1.20707C53.1519 1.46889 53.0552 1.77781 53.0525 2.09466L52.9818 9.54554L0.278326 9.02769L0.246983 12.2316L52.9505 12.7449L52.8754 20.1957C52.8719 20.5126 52.9625 20.8233 53.1359 21.0886C53.3092 21.3539 53.5574 21.5617 53.8489 21.6857C54.1405 21.8098 54.4624 21.8444 54.7737 21.7853C55.085 21.7262 55.3717 21.576 55.5976 21.3538Z" fill="white"/>
</svg>
